<?xml version="1.0" encoding="utf-8"?>
<!-- Generator: Adobe Illustrator 22.0.0, SVG Export Plug-In . SVG Version: 6.00 Build 0)  -->
<svg version="1.1" id="check_x5F_box_x5F_yes" xmlns="http://www.w3.org/2000/svg" xmlns:xlink="http://www.w3.org/1999/xlink"
	 x="0px" y="0px" viewBox="0 0 64 64" style="enable-background:new 0 0 64 64;" xml:space="preserve">
<style type="text/css">
	.st0{fill:#242424;}
</style>
<g>
	<path class="st0" d="M59.6,64H4.4C2,64,0,62,0,59.6L0,4.4C0,2,2,0,4.4,0h55.2C62,0,64,2,64,4.4v55.1C64,62,62,64,59.6,64z
		 M4.4,59.5h55.1V4.5H4.4V59.5z"/>
	<path class="st0" d="M51.1,18.8c-1.1-1.1-2.9-1.1-4.1,0L26.2,39.3l-9.3-9.2C15.8,29,14,28.9,12.9,30c-1.1,1.1-1.2,2.8-0.1,3.9
		l11.3,11.2c0,0,0,0,0,0c0,0,0,0,0,0c0.2,0.2,0.4,0.3,0.6,0.4c0.1,0.1,0.2,0.2,0.3,0.2c0.3,0.1,0.7,0.2,1.1,0.2
		c0.4,0,0.7-0.1,1.1-0.2c0.1,0,0.2-0.1,0.3-0.2c0.2-0.1,0.4-0.2,0.6-0.4c0,0,0,0,0,0c0,0,0,0,0,0l23-22.5
		C52.3,21.6,52.3,19.9,51.1,18.8z"/>
</g>
</svg>
