<?xml version="1.0" encoding="utf-8"?>
<!-- Generator: Adobe Illustrator 23.0.0, SVG Export Plug-In . SVG Version: 6.00 Build 0)  -->
<svg version="1.1" id="图层_1" xmlns="http://www.w3.org/2000/svg" xmlns:xlink="http://www.w3.org/1999/xlink" x="0px" y="0px"
	 viewBox="0 0 64 64" style="enable-background:new 0 0 64 64;" xml:space="preserve">
<style type="text/css">
	.st0{fill:#202020;}
</style>
<g>
	<path class="st0" d="M14.5,35.4h6.4v-5.7h-6.4V35.4z M60.8,46.9c0,1.6-1.5,2.9-3.2,2.9H6.4c-1.7,0-3.2-1.3-3.2-2.9V18.2
		c0-1.6,1.5-2.9,3.2-2.9h51.2c1.7,0,3.2,1.3,3.2,2.9C60.8,18.2,60.8,46.9,60.8,46.9z M57.6,12.4H6.4C2.9,12.4,0,15,0,18.2v28.7
		c0,3.1,2.9,5.7,6.4,5.7h51.2c3.5,0,6.4-2.6,6.4-5.7V18.2C64,15,61.1,12.4,57.6,12.4z M48,26.8h6.4V21H48V26.8z M43.3,35.4h6.1v-5.7
		h-6.4v5.7H43.3z M9.6,26.8H16V21H9.6V26.8z M17.7,44h28.8v-5.7H17.7V44z M38.4,26.8h6.4V21h-6.4V26.8z M19.2,26.8h6.4V21h-6.4V26.8
		z M23.9,35.4h6.4v-5.7h-6.4V35.4z M28.8,26.8h6.4V21h-6.4V26.8z M33.5,35.4h6.4v-5.7h-6.4V35.4z"/>
	<path class="st0" d="M57.8,57.9l-0.3,0.3c-1.1,1-2.6,1.1-3.4,0.3L4.8,9.3C4,8.5,4.2,7.1,5.3,6.1l0.3-0.3c1.1-1,2.6-1.1,3.4-0.3
		l49.3,49.2C59,55.5,58.8,56.9,57.8,57.9z"/>
</g>
</svg>
