<?xml version="1.0" encoding="utf-8"?>
<!-- Generator: Adobe Illustrator 23.0.0, SVG Export Plug-In . SVG Version: 6.00 Build 0)  -->
<svg version="1.1" id="图层_1" xmlns="http://www.w3.org/2000/svg" xmlns:xlink="http://www.w3.org/1999/xlink" x="0px" y="0px"
	 viewBox="0 0 64 64" style="enable-background:new 0 0 64 64;" xml:space="preserve">
<style type="text/css">
	.st0{fill:#202020;}
</style>
<path class="st0" d="M32,14C18,14,5.9,21.3,0,32c5.9,10.7,18,18,32,18c14,0,26.1-7.3,32-18C58.1,21.3,46,14,32,14z M26,20.9
	c3,0,5.4,2.4,5.4,5.4c0,3-2.4,5.4-5.4,5.4s-5.4-2.4-5.4-5.4C20.6,23.3,23,20.9,26,20.9z M47.8,40.5c-4.7,2.7-10.2,4.1-15.8,4.1
	c-5.6,0-11.1-1.4-15.8-4.1c-3.8-2.2-6.9-5.1-9.3-8.5c2.4-3.4,5.6-6.3,9.3-8.5c0.2-0.1,0.5-0.3,0.7-0.4c-0.6,1.5-1,3.2-1,4.9
	c0,8,7.2,14.4,16,14.4c8.8,0,16-6.4,16-14.4c0-1.7-0.3-3.4-1-4.9c0.2,0.1,0.5,0.3,0.7,0.4c3.8,2.2,6.9,5.1,9.3,8.5
	C54.7,35.4,51.5,38.3,47.8,40.5z"/>
</svg>
