<?xml version="1.0" encoding="utf-8"?>
<!-- Generator: Adobe Illustrator 23.0.0, SVG Export Plug-In . SVG Version: 6.00 Build 0)  -->
<svg version="1.1" id="logo" xmlns="http://www.w3.org/2000/svg" xmlns:xlink="http://www.w3.org/1999/xlink" x="0px" y="0px"
	 viewBox="0 0 64 64" style="enable-background:new 0 0 64 64;" xml:space="preserve">
<style type="text/css">
	.st0{fill:#FAFAFA;}
	.st1{fill:#92BC6C;}
</style>
<g>
	<g>
		<path class="st0" d="M20.9,37.3c14.9-3.7,24.9-12,28.7-27.1c3.3,3.5,4.3,10.9,2.5,16c-2.6,7.3-7.6,11.7-14.9,13.6
			C32.9,40.6,23.6,39.4,20.9,37.3z"/>
		<path class="st0" d="M14.5,31.3C8.2,21.7,11,11,18,5.1c7.3-6.2,18.5-6.5,24.8-1.9C28,6.8,18.3,15.7,14.5,31.3z"/>
		<path class="st0" d="M32.2,27.2c-4,0-7.2-3.1-7.1-6.9c0.1-3.8,3.4-6.9,7.3-6.9c3.9,0,7.2,3.2,7.2,6.9
			C39.6,24.3,36.4,27.3,32.2,27.2z"/>
		<path class="st0" d="M26.9,30.1c-3.8,0.6-7.7,1.3-12.1,2c2.2-3.7,4-7,6.2-10.8C21.9,25.4,23.9,27.9,26.9,30.1z"/>
		<path class="st0" d="M49.1,9.3c-1.9,3.3-3.8,6.5-6,10.3c-0.8-4.2-2.8-6.7-5.9-8.8C41.5,9.6,48.9,9.1,49.1,9.3z"/>
	</g>
	<g>
		<path class="st1" d="M47.5,64c-0.6-0.4-0.8-0.9-0.8-1.6c0-2.6,0-5.2,0-7.8c0-0.3-0.1-0.7-0.3-1c-1-1.5-2-3-3.1-4.4
			c-0.2-0.3-0.6-0.5-0.9-0.5c-1.4,0-2.8,0-4.2,0c-1.1,0-1.3,0.2-1.3,1.4c0,0.7,0,1.4,0,2.2c-0.1,0.8,0.2,1.1,1.1,1.1
			c1.4-0.1,2.8,0,4.2,0c0.9,0,1.2,0.4,1.2,1.3c0,1-0.3,1.4-1.2,1.4c-1.4,0-2.8,0-4.1,0c-0.9,0-1.2,0.4-1.1,1.2c0,0.9,0,1.7,0,2.6
			c0,0.9,0.3,1.2,1.2,1.2c1.3,0,2.6,0,3.9,0c1.1,0,1.5,0.3,1.5,1.3c0,1-0.4,1.5-1.4,1.6h-5.8c-1.1,0-1.8-0.6-1.8-1.7
			c0-2.8,0-5.7,0-8.5c0-2,0-4,0-6c0-1.4,0.4-1.8,1.8-1.7c2.4,0,4.8,0,7.2,0c0.8,0,1.2,0.3,1.6,0.9c0.9,1.6,1.9,3.1,3,4.8
			c1.2-1.9,2.4-3.7,3.5-5.5c0.1-0.1,0.2-0.1,0.4-0.2c0.7,0,1.3-0.1,2-0.1c3,0,5.9,0,8.9,0c0.9,0,1.3,0.4,1.3,1.3
			c0,0.9-0.4,1.4-1.4,1.4c-3,0-6,0-9,0c-0.6,0-0.9,0.2-1.3,0.6c-1,1.4-2,2.8-2.9,4.2c-0.2,0.3-0.3,0.7-0.3,1.1c0,2.6,0,5.2,0,7.8
			c0,0.8-0.3,1.2-0.9,1.5C48,64,47.8,64,47.5,64z"/>
		<path class="st0" d="M15.6,64c-0.4,0-0.4-0.8-0.4-1.2c0-2.6,0-5.3-0.1-7.9c0-0.5-0.2-1-0.4-1.4c-1.1-1.7-2.3-3.4-3.4-5.1
			c-0.8-1-0.4-1.8,0.4-2.1c0.6-0.2,1.3,0,1.6,0.5c1,1.7,2,3.3,3,5c0.2-0.4,2.3-3.7,3.1-5.1c0.5-0.8,1-0.5,1.6-0.3
			c0.6,0.3,0.9,0.7,0.6,1.5c0-0.1-3.5,5.3-3.5,5.3c-0.4,0.8-0.4,1.5-0.4,1.5v8.1c0,0,0,1.2-0.4,1.2C17.3,64,15.5,64,15.6,64z"/>
		<path class="st0" d="M7.3,63.9c-2.2,0-4.3,0-6.5,0c-0.7-0.3-0.9-0.9-0.8-1.6c0.2-0.8,0.7-1,1.5-1c1.4,0,2.8,0,4.2,0
			c1.2,0,1.9-0.6,2-1.7c0.1-0.6,0-1.3-0.1-1.9c-0.2-0.9-0.8-1.4-1.7-1.4c-0.7,0-1.5,0-2.2,0c-2.1,0-3.4-1-3.6-3.1
			c-0.1-1.4-0.1-2.9,0-4.3C0.4,47,1.6,46,3.5,46c1.6,0,3.3,0,4.9,0c1,0,1.5,0.5,1.5,1.4c0,0.8-0.5,1.3-1.5,1.3c-1.4,0-2.8,0-4.1,0
			c-1.5,0-2.1,0.8-2.1,2.6c0,1.6,0.6,2.3,2.1,2.3c0.6,0,1.3,0,1.9,0c2.2,0,3.4,0.9,3.6,3.1c0.2,1.4,0.1,2.9,0,4.4
			C9.6,62.5,8.8,63.6,7.3,63.9z"/>
		<path class="st0" d="M29.8,63.8c-2.1,0-4.1,0-6.2,0c-0.8-0.3-0.9-1-0.7-1.7c0.2-0.8,0.7-0.9,1.4-0.9c1.3,0,2.6,0,3.9,0
			c1.1,0,1.8-0.6,1.9-1.7c0.1-0.5,0.1-1.1,0-1.6c-0.1-1.1-0.8-1.7-1.9-1.7c-0.7,0-1.4,0-2.1,0c-1.7,0-2.9-0.8-3.2-2.6
			c-0.2-1.7-0.2-3.5,0-5.2c0.2-1.4,1.3-2.6,3.2-2.5c1.5,0.1,3,0,4.6,0c0.9,0,1.4,0.5,1.4,1.3c0,0.9-0.5,1.3-1.4,1.3
			c-1.3,0-2.6,0-3.9,0c-1.2,0-1.9,0.7-2,1.9c0,0.4,0,0.7,0,1.1c0.1,1.2,0.8,1.9,1.9,1.9c0.6,0,1.3,0,1.9,0c1.9,0,3.1,0.9,3.3,2.7
			c0.2,1.6,0.2,3.2,0,4.8C31.9,62.5,31.2,63.5,29.8,63.8z"/>
		<path class="st0" d="M56.4,56c-0.2,0.3-0.6,0.7-0.7,1c-0.1,1,0,2,0,3c0,0.7,0.3,1,1,1c1.8,0,3.5,0,5.3,0c1,0,1.4,0.4,1.4,1.3
			c0,0.9-0.4,1.7-1.4,1.7h-7.3c-1,0-1.4-0.7-1.5-1.7c0-2.5,0-5,0-7.6c0-1.1,0.4-1.4,1.4-1.4c2,0,4,0,6,0c0.7,0,1.1,0.3,1.2,1
			c0.1,1.5-1.4,1.3-1.4,1.3s-2.3,0-3.5,0C56.9,55.7,56.7,55.9,56.4,56z"/>
	</g>
</g>
</svg>
