<?xml version="1.0" encoding="utf-8"?>
<!-- Generator: Adobe Illustrator 23.0.0, SVG Export Plug-In . SVG Version: 6.00 Build 0)  -->
<svg version="1.1" id="username" xmlns="http://www.w3.org/2000/svg" xmlns:xlink="http://www.w3.org/1999/xlink" x="0px" y="0px"
	 viewBox="0 0 64 64" style="enable-background:new 0 0 64 64;" xml:space="preserve">
<style type="text/css">
	.st0{fill:#202020;}
</style>
<path class="st0" d="M13.7,18.3c0,10.1,8.2,18.3,18.3,18.3s18.3-8.2,18.3-18.3S42.1,0,32,0S13.7,8.2,13.7,18.3L13.7,18.3L13.7,18.3z
	 M18.3,41.1C8.2,41.1,0,49.3,0,59.4l0,0C0,62,2.1,64,4.6,64h54.9c2.5,0,4.6-2,4.6-4.6l0,0c0-10.1-8.2-18.3-18.3-18.3H18.3L18.3,41.1
	z"/>
</svg>
