<?xml version="1.0" encoding="utf-8"?>
<!-- Generator: Adobe Illustrator 23.0.0, SVG Export Plug-In . SVG Version: 6.00 Build 0)  -->
<svg version="1.1" id="close" xmlns="http://www.w3.org/2000/svg" xmlns:xlink="http://www.w3.org/1999/xlink" x="0px" y="0px"
	 viewBox="0 0 64 64" style="enable-background:new 0 0 64 64;" xml:space="preserve">
<style type="text/css">
	.st0{fill:#FAFAFA;}
</style>
<path class="st0" d="M36.9,32L63,5.9c1.3-1.3,1.3-3.5,0-4.8L62.9,1c-1.3-1.3-3.5-1.3-4.8,0L32,27.1L5.9,1C4.6-0.3,2.5-0.3,1.1,1
	L1,1.1c-1.3,1.3-1.4,3.4-0.1,4.7c0,0,0,0,0.1,0.1L27.1,32L1,58.1c-1.3,1.3-1.3,3.5,0,4.8L1.2,63c1.3,1.3,3.5,1.3,4.8,0l26-26.1
	L58.1,63c1.3,1.3,3.5,1.3,4.8,0l0.1-0.1c1.3-1.3,1.3-3.5,0-4.8L36.9,32L36.9,32z"/>
</svg>
