<?xml version="1.0" encoding="utf-8"?>
<!-- Generator: Adobe Illustrator 23.0.0, SVG Export Plug-In . SVG Version: 6.00 Build 0)  -->
<svg version="1.1" id="图层_1" xmlns="http://www.w3.org/2000/svg" xmlns:xlink="http://www.w3.org/1999/xlink" x="0px" y="0px"
	 viewBox="0 0 64 64" style="enable-background:new 0 0 64 64;" xml:space="preserve">
<style type="text/css">
	.st0{fill:#202020;}
</style>
<g>
	<g>
		<path class="st0" d="M40.4,35.6H23.6c-12.7,0-23.1,9.2-23.1,20.5v4c0,1.3,1.2,2.4,2.7,2.4S6,61.5,6,60.2v-4
			c0-8.6,7.9-15.7,17.6-15.7h16.9c9.7,0,17.6,7,17.6,15.7v4c0,1.3,1.2,2.4,2.7,2.4s2.7-1.1,2.7-2.4v-4
			C63.5,44.8,53.1,35.6,40.4,35.6z"/>
		<path class="st0" d="M32,32.1c-8.7,0-15.8-7.1-15.8-15.8S23.3,0.5,32,0.5s15.8,7.1,15.8,15.8S40.7,32.1,32,32.1z M32,4.4
			c-6.5,0-11.8,5.3-11.8,11.8S25.5,28.1,32,28.1s11.8-5.3,11.8-11.8S38.5,4.4,32,4.4z"/>
	</g>
	<path class="st0" d="M42.7,43.4c-1.1-0.8-2.6-0.6-3.3,0.5l-9.9,13.7l-5.2-4.2c-1-0.8-2.5-0.7-3.4,0.4c-0.8,1-0.7,2.6,0.4,3.4l7,5.7
		c0.2,0.2,0.4,0.3,0.7,0.4c0.3,0.1,0.6,0.2,1,0.2c0.7,0,1.5-0.3,1.9-1l11.4-15.7C43.9,45.7,43.7,44.2,42.7,43.4L42.7,43.4z"/>
</g>
</svg>
