<?xml version="1.0" encoding="utf-8"?>
<!-- Generator: Adobe Illustrator 23.0.0, SVG Export Plug-In . SVG Version: 6.00 Build 0)  -->
<svg version="1.1" id="图层_1" xmlns="http://www.w3.org/2000/svg" xmlns:xlink="http://www.w3.org/1999/xlink" x="0px" y="0px"
	 viewBox="0 0 64 64" style="enable-background:new 0 0 64 64;" xml:space="preserve">
<style type="text/css">
	.st0{fill:#202020;}
</style>
<g>
	<path class="st0" d="M57.6,12H15.4L8.9,5.5C8.1,4.7,6.6,4.9,5.6,5.8L5.3,6.1C4.2,7.1,4,8.5,4.8,9.3L7.5,12H6.4
		C2.9,12,0,14.6,0,17.7v28.6C0,49.4,2.9,52,6.4,52h41.2l6.5,6.5c0.8,0.8,2.3,0.6,3.4-0.3l0.3-0.3c1.1-1,1.3-2.4,0.5-3.2L55.5,52h2.1
		c3.5,0,6.4-2.6,6.4-5.7V17.7C64,14.6,61.1,12,57.6,12z M6.4,49.1c-1.7,0-3.2-1.3-3.2-2.9V17.7c0-1.6,1.5-2.9,3.2-2.9h4l8.8,8.8v2.6
		h2.6l2.9,2.9h-0.8v5.7h6.4v-0.2l3,3H17.7v5.7H39l5.7,5.7H6.4z M60.8,46.3c0,1.6-1.5,2.9-3.2,2.9h-5l-6.1-6.1v-5.3h-5.4l-2.9-2.9
		h1.5v-5.7h-6.4V30l-3.7-3.7h5.5v-5.7h-6.4v4.8l-3.2-3.2v-1.6H24l-5.7-5.7h39.3c1.7,0,3.2,1.3,3.2,2.9V46.3z"/>
	<rect x="9.6" y="20.6" class="st0" width="6.4" height="5.7"/>
	<rect x="14.5" y="29.1" class="st0" width="6.4" height="5.7"/>
	<rect x="38.4" y="20.6" class="st0" width="6.4" height="5.7"/>
	<rect x="48" y="20.6" class="st0" width="6.4" height="5.7"/>
	<polygon class="st0" points="43.1,34.9 43.3,34.9 49.5,34.9 49.5,29.1 43.1,29.1 	"/>
</g>
</svg>
