<?xml version="1.0" encoding="utf-8"?>
<!-- Generator: Adobe Illustrator 23.0.0, SVG Export Plug-In . SVG Version: 6.00 Build 0)  -->
<svg version="1.1" id="password" xmlns="http://www.w3.org/2000/svg" xmlns:xlink="http://www.w3.org/1999/xlink" x="0px" y="0px"
	 viewBox="0 0 64 64" style="enable-background:new 0 0 64 64;" xml:space="preserve">
<style type="text/css">
	.st0{fill:#202020;}
</style>
<path class="st0" d="M56.4,64H7.6C3.4,64,0,61.2,0,57.8V31.3C0,27.8,3.4,25,7.6,25h1.9v-6.2C9.5,8.1,19.6,0,32,0s22.5,8.1,22.5,18.8
	v6.2h1.9c4.2,0,7.6,2.8,7.6,6.2v26.5C64,61.2,60.6,64,56.4,64z M28.8,44.3v6.9c0,1.4,1.4,2.6,3.2,2.6c1.8,0,3.2-1.2,3.2-2.6v-6.9
	c1.9-0.9,3.2-2.6,3.2-4.5c0-2.9-2.9-5.3-6.4-5.3c-3.5,0-6.4,2.4-6.4,5.3C25.6,41.7,26.9,43.4,28.8,44.3z M48.1,18.7
	c0-7.3-7.2-13.2-16.1-13.2s-16.1,5.9-16.1,13.2V25h32.1V18.7z"/>
</svg>
