<?xml version="1.0" encoding="utf-8"?>
<!-- Generator: Adobe Illustrator 23.0.0, SVG Export Plug-In . SVG Version: 6.00 Build 0)  -->
<svg version="1.1" id="图层_1" xmlns="http://www.w3.org/2000/svg" xmlns:xlink="http://www.w3.org/1999/xlink" x="0px" y="0px"
	 viewBox="0 0 64 64" style="enable-background:new 0 0 64 64;" xml:space="preserve">
<style type="text/css">
	.st0{fill:#202020;}
</style>
<path class="st0" d="M63.4,26.7l-3.8-3.1c0.5-0.5,0.9-1,1.4-1.5c0.6-0.7,0.5-1.7-0.2-2.2c-0.7-0.6-1.7-0.5-2.3,0.2
	c-0.1,0.1-12.6,14.3-26.4,14.3c-13.8,0-27-14.1-27.2-14.3c-0.6-0.7-1.6-0.7-2.3-0.1s-0.7,1.6-0.1,2.2c0.1,0.1,0.7,0.7,1.6,1.6
	l-3.7,3.6c-0.6,0.6-0.6,1.6,0,2.2c0.6,0.6,1.6,0.6,2.3,0l3.8-3.7c1.6,1.4,3.2,2.7,4.9,3.9l-3.3,5.3c-0.5,0.7-0.2,1.7,0.5,2.2
	c0.8,0.5,1.8,0.2,2.2-0.5l3.2-5.2c1.9,1.2,3.8,2.2,5.8,3.1l-2,5.1c-0.2,0.5-0.1,1,0.2,1.5c0.3,0.4,0.8,0.7,1.3,0.7
	c0.6,0,1.3-0.4,1.5-1l2-5.1c2.4,0.8,5,1.4,7.6,1.6v5.5c0,0.9,0.7,1.6,1.6,1.6c0.9,0,1.6-0.7,1.6-1.6v-5.5c2.6-0.2,5.1-0.7,7.5-1.6
	l1.8,5c0.3,0.8,1.2,1.2,2,0.9c0.8-0.3,1.3-1.2,1-2l-1.8-5.1c2-0.9,3.9-2,5.8-3.2l3.4,4.3c0.3,0.3,0.6,0.6,1.1,0.6s0.9-0.1,1.2-0.3
	c0.7-0.5,0.8-1.5,0.3-2.2l-3.3-4.2c1.6-1.2,3.2-2.5,4.7-3.8l4.1,3.3c0.3,0.2,0.7,0.4,1,0.4c0.7,0,1.3-0.4,1.5-1.1
	C64.1,27.8,63.9,27.1,63.4,26.7z"/>
</svg>
