<?xml version="1.0" encoding="utf-8"?>
<!-- Generator: Adobe Illustrator 23.0.0, SVG Export Plug-In . SVG Version: 6.00 Build 0)  -->
<svg version="1.1" id="logo" xmlns="http://www.w3.org/2000/svg" xmlns:xlink="http://www.w3.org/1999/xlink" x="0px" y="0px"
	 viewBox="0 0 128 128" style="enable-background:new 0 0 128 128;" xml:space="preserve">
<style type="text/css">
	.st0{fill:#FAFAFA;}
	.st1{fill:#92BC6C;}
</style>
<g>
	<g>
		<path class="st0" d="M42.8,74.6c28.3-7.3,47.5-24,54.7-54.3c6.2,7,8.3,21.8,4.8,32c-4.9,14.6-14.6,23.4-28.4,27.1
			C65.7,81.2,48,78.7,42.8,74.6z"/>
		<path class="st0" d="M30.6,62.6C18.7,43.4,24,22,37.4,10.1C51.3-2.3,72.6-3,84.5,6.3C56.4,13.6,37.8,31.4,30.6,62.6z"/>
		<path class="st0" d="M64.4,54.4c-7.6-0.1-13.7-6.2-13.6-13.9c0.1-7.5,6.4-13.7,13.9-13.7c7.4,0,13.7,6.3,13.7,13.9
			C78.4,48.6,72.3,54.5,64.4,54.4z"/>
		<path class="st0" d="M54.2,60.2c-7.3,1.3-14.7,2.5-23,3.9c4.1-7.4,7.7-13.9,11.9-21.5C44.9,50.7,48.5,55.8,54.2,60.2z"/>
		<path class="st0" d="M96.5,18.5c-3.6,6.5-7.2,13-11.4,20.6c-1.5-8.4-5.4-13.4-11.1-17.7C82.1,19.2,96.2,18.2,96.5,18.5z"/>
	</g>
	<g>
		<path class="st1" d="M95,128c-1.2-0.7-1.5-1.8-1.5-3.2c0.1-5.2,0-10.3,0-15.5c0-0.7-0.2-1.5-0.5-2c-2-3-4-6-6.2-8.8
			c-0.4-0.5-1.2-1-1.9-1c-2.8-0.1-5.6-0.1-8.4,0c-2.2,0-2.6,0.5-2.6,2.7c0,1.4,0.1,2.9,0,4.3c-0.1,1.6,0.5,2.3,2.1,2.2
			c2.8-0.1,5.6,0,8.4,0c1.8,0,2.4,0.7,2.4,2.6c0,1.9-0.7,2.8-2.4,2.8c-2.8,0-5.5,0.1-8.3,0c-1.7,0-2.4,0.7-2.3,2.4
			c0.1,1.7,0,3.5,0,5.2c0,1.8,0.6,2.4,2.3,2.4c2.6,0,5.1,0,7.7,0c2.2,0,3,0.7,3,2.6c0,2-0.8,2.9-2.8,3.3H72.6
			c-2.3,0-3.7-1.1-3.7-3.5c0-5.6,0-11.3,0-17c0-4,0-7.9,0-11.9c0-2.7,0.8-3.5,3.5-3.5c4.8,0,9.6,0.1,14.4,0c1.5,0,2.4,0.5,3.2,1.8
			c1.9,3.1,3.8,6.2,5.9,9.6c2.4-3.8,4.7-7.3,7-10.9c0.2-0.1,0.5-0.3,0.7-0.4c1.3-0.1,2.6-0.2,3.9-0.2c5.9,0,11.8,0,17.8,0.1
			c1.9,0,2.6,0.8,2.7,2.6c0,1.9-0.8,2.7-2.7,2.7c-6,0-12,0.1-17.9,0c-1.1,0-1.9,0.3-2.5,1.3c-1.9,2.8-4,5.6-5.9,8.4
			c-0.4,0.6-0.6,1.4-0.6,2.2c0,5.2-0.1,10.5,0,15.7c0,1.5-0.5,2.5-1.9,3C96,128,95.5,128,95,128z"/>
		<path class="st0" d="M31.1,128c-0.9,0-0.7-1.6-0.8-2.5c-0.1-5.3,0-10.6-0.1-15.8c0-0.9-0.4-2-0.9-2.8c-2.2-3.4-4.5-6.8-6.8-10.2
			c-1.6-2-0.8-3.5,0.8-4.3c1.1-0.4,2.6,0,3.2,1.1c1.9,3.3,4,6.5,6.1,10.1c0.5-0.7,4.6-7.4,6.2-10.2c0.9-1.6,2.1-1.1,3.2-0.5
			c1.2,0.6,1.9,1.5,1.3,2.9c0-0.3-6.9,10.6-6.9,10.6c-0.8,1.5-0.8,3.1-0.8,3.1v16.2c0,0,0,2.3-0.8,2.3C34.7,128,31.1,128,31.1,128z"
			/>
		<path class="st0" d="M14.7,127.7c-4.3,0-8.7,0-13,0c-1.5-0.6-1.8-1.8-1.5-3.2c0.3-1.6,1.4-2,2.9-2c2.8,0.1,5.6,0,8.4,0
			c2.3,0,3.8-1.2,4-3.5c0.1-1.2,0.1-2.5-0.2-3.7c-0.4-1.8-1.6-2.7-3.5-2.7c-1.5,0-3,0-4.5,0c-4.2,0-6.7-1.9-7.1-6.1
			c-0.3-2.8-0.3-5.8,0.1-8.6C0.8,94,3.2,92.1,7,92.1c3.3,0,6.6,0,9.9,0c2,0,3,1,3,2.8c0,1.7-1,2.6-2.9,2.6c-2.8,0-5.5,0-8.3,0
			c-3,0-4.2,1.5-4.2,5.2c0,3.2,1.3,4.6,4.2,4.6c1.3,0,2.5,0,3.8,0c4.4,0,6.8,1.9,7.3,6.3c0.3,2.9,0.3,5.9-0.1,8.8
			C19.3,125,17.7,127.1,14.7,127.7z"/>
		<path class="st0" d="M59.6,127.7c-4.1,0-8.2,0-12.3,0c-1.6-0.7-1.8-1.9-1.5-3.4c0.3-1.5,1.4-1.9,2.8-1.8c2.6,0.1,5.3,0,7.9,0
			c2.2,0,3.5-1.2,3.8-3.3c0.1-1.1,0.1-2.2,0-3.2c-0.2-2.3-1.6-3.4-3.8-3.4c-1.4,0-2.8,0-4.1,0c-3.4,0-5.9-1.7-6.3-5.1
			c-0.4-3.4-0.4-7,0.1-10.4c0.3-2.8,2.6-5.3,6.4-5.1c3,0.2,6.1,0,9.1,0.1c1.9,0,2.8,1,2.9,2.7c0,1.7-1,2.7-2.8,2.7
			c-2.6,0-5.1,0-7.7,0c-2.5,0-3.9,1.4-4,3.9c0,0.7,0,1.4,0,2.2c0.2,2.4,1.5,3.7,3.9,3.7c1.3,0,2.5,0,3.8,0c3.7,0,6.2,1.8,6.6,5.5
			c0.4,3.2,0.3,6.5,0,9.7C63.9,124.9,62.4,127.1,59.6,127.7z"/>
		<path class="st0" d="M112.9,111.9c-0.5,0.7-1.2,1.4-1.3,2.1c-0.2,2,0,4-0.1,5.9c0,1.4,0.6,2,2.1,2c3.5-0.1,7.1,0,10.6,0
			c2,0,2.8,0.8,2.7,2.7c0,1.9-0.8,3.4-2.8,3.4h-14.6c-1.9,0-2.9-1.4-2.9-3.3c-0.1-5-0.1-10.1,0-15.1c0-2.1,0.7-2.8,2.9-2.8
			c4,0,8,0,12,0c1.5,0,2.3,0.7,2.5,2c0.2,3-2.8,2.7-2.8,2.7s-4.7,0-7,0C113.7,111.4,113.3,111.7,112.9,111.9z"/>
	</g>
</g>
</svg>
